<?xml version="1.0" encoding="utf-8"?>
<!-- Generator: Adobe Illustrator 24.1.2, SVG Export Plug-In . SVG Version: 6.00 Build 0)  -->
<svg version="1.1" id="Layer_1" xmlns="http://www.w3.org/2000/svg" xmlns:xlink="http://www.w3.org/1999/xlink" x="0px" y="0px"
	 viewBox="0 0 134.071 134.071" style="enable-background:new 0 0 134.071 134.071;" xml:space="preserve">
<style type="text/css">
	.st0{fill:#FFFFFF;}
</style>
<path class="st0" d="M67.035,5.36c-33.654,0-60.936,27.282-60.936,60.936c0,33.654,27.282,60.936,60.936,60.936
	c33.655,0,60.937-27.282,60.936-60.936C127.971,32.642,100.689,5.36,67.035,5.36z M84.037,42.371c0,0-5.747,0-8.028,0
	c-2.836,0-3.425,1.159-3.425,4.091c0,2.44,0,7.083,0,7.083h11.451l-1.103,12.438H72.583v37.145H57.751v-36.99h-7.716V53.545h7.716
	c0,0,0-1.81,0-9.916c0-9.304,4.977-14.166,16.015-14.166c1.807,0,10.271,0,10.271,0V42.371z"/>
</svg>
