<?xml version="1.0" encoding="utf-8"?>
<!-- Generator: Adobe Illustrator 24.1.2, SVG Export Plug-In . SVG Version: 6.00 Build 0)  -->
<svg version="1.1" id="Layer_1" xmlns="http://www.w3.org/2000/svg" xmlns:xlink="http://www.w3.org/1999/xlink" x="0px" y="0px"
	 viewBox="0 0 134.071 134.071" style="enable-background:new 0 0 134.071 134.071;" xml:space="preserve">
<style type="text/css">
	.st0{fill:#FFFFFF;}
</style>
<g>
	<path class="st0" d="M93.082,46.59c-0.606-1.559-1.329-2.671-2.499-3.841c-1.168-1.169-2.282-1.893-3.841-2.499
		c-1.178-0.458-2.948-1.002-6.205-1.151c-3.523-0.161-4.58-0.195-13.501-0.195s-9.979,0.034-13.501,0.195
		c-3.257,0.149-5.027,0.693-6.204,1.151c-1.56,0.606-2.673,1.33-3.842,2.499s-1.893,2.282-2.499,3.841
		c-0.457,1.178-1.002,2.947-1.151,6.205c-0.16,3.523-0.194,4.58-0.194,13.501c0,8.922,0.034,9.978,0.194,13.501
		c0.149,3.258,0.694,5.027,1.151,6.204c0.606,1.56,1.33,2.673,2.499,3.842c1.169,1.169,2.282,1.893,3.842,2.499
		c1.177,0.458,2.947,1.002,6.204,1.151c3.523,0.16,4.579,0.194,13.501,0.194s9.978-0.034,13.501-0.194
		c3.258-0.149,5.027-0.693,6.205-1.151c1.559-0.606,2.672-1.33,3.841-2.499s1.893-2.282,2.499-3.842
		c0.458-1.177,1.002-2.946,1.151-6.204c0.16-3.523,0.195-4.579,0.195-13.501s-0.035-9.978-0.195-13.501
		C94.084,49.537,93.54,47.768,93.082,46.59z M67.036,83.453c-9.475,0-17.157-7.681-17.157-17.157
		c0-9.476,7.682-17.157,17.157-17.157s17.157,7.681,17.157,17.157C84.193,75.771,76.512,83.453,67.036,83.453z M84.871,52.47
		c-2.215,0-4.01-1.796-4.01-4.01c0-2.214,1.795-4.009,4.01-4.009c2.214,0,4.009,1.795,4.009,4.009
		C88.88,50.674,87.085,52.47,84.871,52.47z"/>
	<circle class="st0" cx="67.036" cy="66.296" r="11.137"/>
	<path class="st0" d="M67.036,5.36C33.382,5.36,6.1,32.642,6.1,66.296c0,33.654,27.282,60.936,60.936,60.936
		s60.936-27.282,60.936-60.936S100.69,5.36,67.036,5.36z M100.246,80.072c-0.162,3.556-0.727,5.985-1.553,8.11
		c-0.854,2.197-1.996,4.06-3.854,5.918c-1.857,1.858-3.721,3-5.918,3.854c-2.125,0.825-4.554,1.391-8.11,1.553
		c-3.563,0.163-4.701,0.201-13.775,0.201c-9.075,0-10.212-0.039-13.776-0.201c-3.556-0.162-5.985-0.728-8.11-1.553
		c-2.197-0.854-4.061-1.997-5.918-3.854c-1.858-1.858-3-3.721-3.853-5.918c-0.826-2.125-1.391-4.554-1.553-8.11
		c-0.163-3.564-0.201-4.702-0.201-13.776c0-9.075,0.038-10.212,0.201-13.776c0.161-3.556,0.727-5.985,1.553-8.11
		c0.853-2.197,1.995-4.061,3.853-5.918c1.857-1.858,3.721-3,5.918-3.854c2.125-0.825,4.554-1.391,8.11-1.553
		c3.564-0.162,4.702-0.201,13.776-0.201c9.074,0,10.211,0.039,13.775,0.201c3.556,0.162,5.985,0.728,8.11,1.553
		c2.197,0.854,4.061,1.996,5.918,3.854c1.858,1.857,3,3.721,3.854,5.918c0.825,2.125,1.391,4.554,1.553,8.11
		c0.162,3.564,0.2,4.702,0.2,13.776C100.446,75.371,100.408,76.508,100.246,80.072z"/>
</g>
</svg>
