<?xml version="1.0" encoding="utf-8"?>
<!-- Generator: Adobe Illustrator 24.1.2, SVG Export Plug-In . SVG Version: 6.00 Build 0)  -->
<svg version="1.1" id="Layer_1" xmlns="http://www.w3.org/2000/svg" xmlns:xlink="http://www.w3.org/1999/xlink" x="0px" y="0px"
	 viewBox="0 0 134.071 134.071" style="enable-background:new 0 0 134.071 134.071;" xml:space="preserve">
<style type="text/css">
	.st0{fill:#FFFFFF;}
</style>
<path class="st0" d="M67.035,5.36c-33.654,0-60.936,27.282-60.936,60.936c0,33.654,27.282,60.936,60.936,60.936
	c33.655,0,60.937-27.282,60.936-60.936C127.971,32.642,100.689,5.36,67.035,5.36z M52.016,93.454H39.404V52.712h12.612V93.454z
	 M45.649,47.377c-4.12,0-7.457-3.369-7.457-7.52s3.337-7.517,7.457-7.517c4.119,0,7.457,3.366,7.457,7.517
	S49.769,47.377,45.649,47.377z M99.276,93.454H86.724c0,0,0-15.519,0-21.387c0-5.865-2.228-9.14-6.865-9.14
	c-5.048,0-7.684,3.413-7.684,9.14c0,6.277,0,21.387,0.001,21.387H60.078V52.712h12.096V58.2c0,0,3.636-6.732,12.278-6.732
	c8.638,0,14.824,5.277,14.824,16.19C99.276,78.571,99.276,93.454,99.276,93.454z"/>
</svg>
