<?xml version="1.0" encoding="utf-8"?>
<!-- Generator: Adobe Illustrator 24.1.2, SVG Export Plug-In . SVG Version: 6.00 Build 0)  -->
<svg version="1.1" id="Layer_1" xmlns="http://www.w3.org/2000/svg" xmlns:xlink="http://www.w3.org/1999/xlink" x="0px" y="0px"
	 viewBox="0 0 195 48" style="enable-background:new 0 0 195 48;" xml:space="preserve">
<style type="text/css">
	.st0{fill:#FFFFFF;}
</style>
<g>
	<path class="st0" d="M72.572,6.472c-0.32-0.192-0.666-0.289-1.037-0.289c-0.372,0-0.717,0.096-1.037,0.289
		c-0.32,0.193-0.571,0.456-0.752,0.791c-0.181,0.335-0.271,0.698-0.271,1.088c0,0.385,0.088,0.744,0.264,1.077
		c0.176,0.333,0.424,0.599,0.744,0.8c0.32,0.2,0.671,0.3,1.052,0.3c0.381,0,0.732-0.1,1.052-0.3c0.32-0.2,0.568-0.467,0.744-0.8
		c0.176-0.333,0.264-0.692,0.264-1.077c0-0.391-0.09-0.754-0.271-1.088C73.143,6.928,72.892,6.664,72.572,6.472z M73.106,9.316
		c-0.16,0.299-0.381,0.534-0.663,0.706c-0.282,0.171-0.585,0.257-0.908,0.257c-0.323,0-0.625-0.086-0.907-0.257
		c-0.282-0.172-0.503-0.406-0.665-0.705c-0.161-0.298-0.242-0.62-0.242-0.967c0-0.345,0.08-0.665,0.241-0.96
		c0.161-0.295,0.382-0.528,0.663-0.7c0.281-0.171,0.585-0.257,0.91-0.257c0.331,0,0.637,0.087,0.918,0.261
		c0.281,0.175,0.501,0.409,0.658,0.703c0.157,0.294,0.235,0.611,0.235,0.952C73.346,8.694,73.266,9.016,73.106,9.316z"/>
	<path class="st0" d="M72.376,9.004c0-0.148-0.027-0.274-0.081-0.379c-0.054-0.106-0.151-0.184-0.29-0.234
		c0.273-0.124,0.409-0.314,0.409-0.571c0-0.241-0.077-0.422-0.229-0.54C72.032,7.16,71.813,7.1,71.529,7.1H70.78v2.435h0.284V8.531
		h0.546c0.174,0,0.298,0.036,0.37,0.108c0.072,0.072,0.109,0.194,0.109,0.367c0,0.283,0.013,0.46,0.041,0.53h0.296V9.489
		c-0.018-0.044-0.03-0.1-0.038-0.165C72.38,9.257,72.376,9.151,72.376,9.004z M71.977,8.148C71.876,8.229,71.746,8.27,71.59,8.27
		h-0.525V7.361h0.505c0.205,0.004,0.35,0.041,0.434,0.112c0.084,0.071,0.126,0.188,0.126,0.353
		C72.13,7.959,72.079,8.067,71.977,8.148z"/>
	<polygon class="st0" points="22.826,2.158 1.779,1.205 2.596,5.46 9.158,4.754 8.557,39.121 11.194,39.723 14.822,4.48 
		21.96,4.155 	"/>
	<path class="st0" d="M33.099,33.046c-0.302,0.043-0.613,0.031-0.913,0.075c-3.736,0.201-8.252-0.894-9.491-9.448l15.392-1.04
		c-0.127-1.446-0.191-2.17-0.391-3.324c-0.993-5.717-3.62-10.522-10.157-10.084c-0.24,0.034-0.551,0.022-0.793,0.057
		c-6.45,0.932-8.839,7.813-7.474,15.673c1.089,6.267,4.961,13.259,14.305,11.909c2.23-0.322,4.464-0.983,5.625-1.771l-1.865-3.618
		C36.399,32.118,35.028,32.766,33.099,33.046z M26.862,12.083c3.135-0.453,5.488,2.419,6.356,7.421l-10.356,1.214
		C22.444,16.891,23.305,12.597,26.862,12.083z"/>
	<path class="st0" d="M60.292,14.29l-0.12-0.018c-1.151-2.984-3.39-4.322-5.682-4.652c-4.762-0.688-10.368,3.124-11.867,11.754
		c-1.174,6.76-0.337,15.109,7.317,16.215c3.257,0.469,6.142-1.199,7.389-3.047l0.181,0.025l-1.766,13.719l3.298-0.48l5.181-28.047
		l1.403-8.081L60.36,9.285L60.292,14.29z M59.058,21.043l-0.774,6.594c-0.568,5.045-4.087,6.454-6.138,6.157
		c-5.306-0.766-5.67-7.92-4.887-12.427c0.897-5.168,3.474-8.965,7.392-8.399C57.847,13.43,59.575,17.004,59.058,21.043z"/>
	<path class="st0" d="M91.694,13.153h-5.696v16.72h1.412v-6.81h4.249c1.837,0,3.24-0.427,4.209-1.281
		c0.968-0.854,1.453-2.065,1.453-3.635c0-1.554-0.504-2.775-1.51-3.663C94.804,13.597,93.431,13.153,91.694,13.153z M94.829,20.892
		c-0.72,0.651-1.765,0.977-3.135,0.977H87.41v-7.522h4.376c1.316,0.016,2.333,0.366,3.049,1.052
		c0.716,0.686,1.074,1.608,1.074,2.766C95.908,19.331,95.548,20.24,94.829,20.892z"/>
	<path class="st0" d="M108.377,21.157c-0.023-1.24-0.435-2.206-1.235-2.899c-0.8-0.693-1.893-1.039-3.279-1.039
		c-1.34,0-2.469,0.361-3.388,1.085c-0.919,0.724-1.378,1.579-1.378,2.567l1.378,0.011c0-0.689,0.314-1.279,0.942-1.769
		c0.628-0.49,1.42-0.735,2.377-0.735c1.049,0,1.847,0.254,2.394,0.763c0.547,0.509,0.821,1.208,0.821,2.096v1.412h-2.492
		c-1.799,0-3.202,0.352-4.209,1.057c-1.007,0.704-1.51,1.661-1.51,2.871c0,1.018,0.369,1.86,1.108,2.526s1.706,0.999,2.9,0.999
		c0.834,0,1.625-0.17,2.371-0.511c0.747-0.341,1.361-0.825,1.843-1.453c0.038,0.766,0.126,1.344,0.264,1.734h1.47v-0.138
		c-0.252-0.597-0.379-1.497-0.379-2.699V21.157z M107.011,26.44c-0.33,0.743-0.856,1.336-1.579,1.78
		c-0.723,0.444-1.545,0.666-2.463,0.666c-0.826,0-1.498-0.229-2.015-0.689c-0.517-0.459-0.775-1.037-0.775-1.734
		c0-0.85,0.386-1.518,1.16-2.004c0.773-0.486,1.845-0.737,3.215-0.752h2.458V26.44z"/>
	<path class="st0" d="M115.392,27.898l-3.858-10.45h-1.505l4.685,12.322l-0.609,1.677c-0.291,0.811-0.645,1.384-1.062,1.717
		c-0.417,0.333-0.963,0.5-1.636,0.5l-0.712-0.069l0.012,1.137c0.375,0.107,0.727,0.161,1.056,0.161c1.424,0,2.476-0.754,3.158-2.262
		l0.276-0.643l5.306-14.539h-1.481L115.392,27.898z"/>
	<path class="st0" d="M136.729,13.853c-0.984-0.62-2.119-0.93-3.405-0.93s-2.423,0.316-3.411,0.947
		c-0.988,0.631-1.751,1.535-2.291,2.71c-0.54,1.175-0.81,2.525-0.81,4.048v1.722c0,2.373,0.601,4.259,1.803,5.656
		c1.202,1.397,2.779,2.096,4.731,2.096c1.294,0,2.435-0.314,3.422-0.942c0.987-0.628,1.747-1.523,2.28-2.687
		c0.532-1.164,0.798-2.515,0.798-4.054v-1.998c-0.023-1.493-0.303-2.805-0.839-3.939C138.473,15.35,137.713,14.474,136.729,13.853z
		 M138.435,22.374c0,2.044-0.448,3.639-1.344,4.783c-0.896,1.144-2.143,1.717-3.744,1.717c-1.577,0-2.825-0.58-3.744-1.74
		c-0.919-1.159-1.378-2.731-1.378-4.714v-1.746c0-2.051,0.462-3.65,1.384-4.794c0.922-1.144,2.161-1.717,3.715-1.717
		c1.585,0,2.833,0.57,3.744,1.711s1.367,2.718,1.367,4.731V22.374z"/>
	<path class="st0" d="M147.906,17.218c-0.842,0-1.612,0.201-2.309,0.603c-0.697,0.402-1.279,0.986-1.745,1.751l-0.046-2.124h-1.309
		v12.425h1.367v-8.51c0.314-0.903,0.798-1.621,1.453-2.153c0.655-0.532,1.407-0.798,2.256-0.798c1.018,0,1.759,0.272,2.222,0.816
		c0.463,0.544,0.698,1.37,0.706,2.48v8.165h1.367V21.72c-0.007-1.501-0.337-2.626-0.987-3.376
		C150.23,17.593,149.239,17.218,147.906,17.218z"/>
	<rect x="154.99" y="12.234" class="st0" width="1.378" height="17.639"/>
	<rect x="159.672" y="17.448" class="st0" width="1.378" height="12.425"/>
	<path class="st0" d="M160.373,12.935c-0.291,0-0.521,0.09-0.689,0.268c-0.169,0.179-0.253,0.398-0.253,0.656
		c0,0.259,0.084,0.476,0.253,0.65c0.168,0.175,0.398,0.263,0.689,0.263c0.291,0,0.522-0.088,0.695-0.263
		c0.172-0.175,0.258-0.392,0.258-0.65c0-0.258-0.086-0.477-0.258-0.656C160.895,13.024,160.664,12.935,160.373,12.935z"/>
	<path class="st0" d="M169.604,17.218c-0.842,0-1.612,0.201-2.309,0.603c-0.697,0.402-1.279,0.986-1.745,1.751l-0.046-2.124h-1.309
		v12.425h1.367v-8.51c0.314-0.903,0.798-1.621,1.453-2.153c0.655-0.532,1.407-0.798,2.256-0.798c1.018,0,1.759,0.272,2.222,0.816
		c0.463,0.544,0.698,1.37,0.706,2.48v8.165h1.366V21.72c-0.007-1.501-0.337-2.626-0.987-3.376
		C171.927,17.593,170.936,17.218,169.604,17.218z"/>
	<path class="st0" d="M186,23.752v-0.77c0-1.784-0.442-3.19-1.326-4.22c-0.884-1.03-2.08-1.544-3.589-1.544
		c-0.964,0-1.86,0.273-2.687,0.821s-1.472,1.3-1.935,2.257c-0.463,0.957-0.695,2.033-0.695,3.227v0.493
		c0,1.156,0.237,2.199,0.712,3.129c0.474,0.93,1.138,1.656,1.992,2.176c0.854,0.521,1.809,0.781,2.865,0.781
		c1.922,0,3.388-0.731,4.398-2.193l-0.861-0.654c-0.459,0.59-0.971,1.018-1.533,1.286c-0.563,0.268-1.212,0.402-1.947,0.402
		c-1.225,0-2.241-0.469-3.049-1.407c-0.808-0.938-1.212-2.111-1.212-3.52v-0.264H186z M178.473,19.526
		c0.708-0.758,1.579-1.137,2.612-1.137c1.041,0,1.884,0.375,2.526,1.125c0.643,0.751,0.984,1.723,1.022,2.917v0.149h-7.453
		C177.334,21.303,177.764,20.284,178.473,19.526z"/>
</g>
</svg>
