<?xml version="1.0" encoding="utf-8"?>
<!-- Generator: Adobe Illustrator 24.1.2, SVG Export Plug-In . SVG Version: 6.00 Build 0)  -->
<svg version="1.1" id="Layer_1" xmlns="http://www.w3.org/2000/svg" xmlns:xlink="http://www.w3.org/1999/xlink" x="0px" y="0px"
	 viewBox="0 0 396 141" style="enable-background:new 0 0 396 141;" xml:space="preserve">
<style type="text/css">
	.st0{fill:#EE6445;}
	.st1{fill:#93AA27;}
	.st2{fill:#4CB178;}
	.st3{fill:#4E81A2;}
	.st4{fill:#EC609E;}
	.st5{fill:#F6AD6B;}
	.st6{fill:#98D162;}
	.st7{fill:#71C9C2;}
	.st8{fill:#8798BE;}
	.st9{fill:#FFFFFF;stroke:#000000;stroke-miterlimit:10;}
</style>
<g>
	<g>
		<ellipse class="st0" cx="91.374" cy="80.427" rx="8.597" ry="26.118"/>
		<ellipse class="st1" cx="162.144" cy="80.427" rx="8.597" ry="26.118"/>
		<ellipse class="st2" cx="232.914" cy="80.427" rx="8.597" ry="26.118"/>
		<ellipse class="st3" cx="303.684" cy="80.427" rx="8.597" ry="26.118"/>
		<g>
			<path class="st4" d="M91.374,54.309c-8.011-10.835-20.875-17.864-35.385-17.864c-24.291,0-43.982,19.692-43.982,43.982
				c0,24.291,19.692,43.982,43.982,43.982c14.509,0,27.374-7.029,35.385-17.864c-5.4-7.304-8.597-16.337-8.597-26.118
				C82.777,70.645,85.974,61.613,91.374,54.309z"/>
			<g>
				<path d="M42.822,80.333c0,0.651-0.148,1.172-0.443,1.564s-0.695,0.588-1.197,0.588c-0.427,0-0.772-0.148-1.035-0.445v1.992
					h-1.129V78.18h1.047l0.039,0.414c0.273-0.328,0.63-0.492,1.07-0.492c0.521,0,0.926,0.193,1.215,0.578s0.434,0.917,0.434,1.594
					v0.059C42.823,80.333,42.822,80.333,42.822,80.333z M41.693,80.251c0-0.393-0.07-0.697-0.209-0.91s-0.342-0.32-0.607-0.32
					c-0.354,0-0.598,0.135-0.73,0.406v1.73c0.138,0.279,0.384,0.418,0.738,0.418C41.423,81.575,41.693,81.134,41.693,80.251z"/>
				<path d="M43.595,82.407V76.72h1.992c0.69,0,1.213,0.132,1.57,0.396s0.535,0.652,0.535,1.162c0,0.279-0.072,0.524-0.215,0.736
					s-0.342,0.368-0.598,0.467c0.292,0.073,0.521,0.22,0.689,0.441s0.252,0.492,0.252,0.812c0,0.547-0.174,0.961-0.523,1.242
					s-0.846,0.424-1.492,0.43L43.595,82.407L43.595,82.407z M44.767,79.102h0.867c0.591-0.01,0.887-0.246,0.887-0.707
					c0-0.258-0.075-0.443-0.225-0.557s-0.386-0.17-0.709-0.17h-0.82L44.767,79.102L44.767,79.102z M44.767,79.931v1.535h1.004
					c0.276,0,0.492-0.066,0.646-0.197s0.232-0.313,0.232-0.545c0-0.521-0.27-0.785-0.809-0.793
					C45.84,79.931,44.767,79.931,44.767,79.931z"/>
				<path d="M49.818,82.407h-1.133v-6h1.133V82.407z"/>
				<path d="M50.572,80.255c0-0.419,0.081-0.793,0.242-1.121s0.394-0.582,0.697-0.762s0.656-0.27,1.057-0.27
					c0.57,0,1.036,0.174,1.396,0.523s0.562,0.823,0.604,1.422l0.008,0.289c0,0.648-0.181,1.168-0.543,1.561
					s-0.848,0.588-1.457,0.588s-1.096-0.195-1.459-0.586s-0.545-0.922-0.545-1.594L50.572,80.255L50.572,80.255z M51.7,80.335
					c0,0.402,0.076,0.709,0.227,0.921s0.367,0.319,0.648,0.319c0.273,0,0.487-0.105,0.641-0.315s0.23-0.546,0.23-1.007
					c0-0.394-0.077-0.699-0.23-0.916s-0.37-0.325-0.648-0.325c-0.276,0-0.49,0.107-0.641,0.323S51.7,79.884,51.7,80.335z"/>
				<path d="M57.029,81.575c0.208,0,0.377-0.057,0.508-0.172s0.198-0.267,0.203-0.457h1.059c-0.002,0.287-0.081,0.549-0.234,0.787
					s-0.364,0.423-0.631,0.555s-0.562,0.197-0.885,0.197c-0.604,0-1.081-0.192-1.43-0.576s-0.523-0.915-0.523-1.592v-0.074
					c0-0.651,0.173-1.17,0.52-1.559s0.822-0.582,1.426-0.582c0.529,0,0.953,0.15,1.271,0.451s0.481,0.701,0.486,1.201H57.74
					c-0.005-0.22-0.073-0.398-0.203-0.536c-0.13-0.137-0.302-0.206-0.516-0.206c-0.263,0-0.461,0.096-0.596,0.288
					s-0.201,0.502-0.201,0.933v0.117c0,0.436,0.066,0.749,0.199,0.939S56.758,81.575,57.029,81.575z"/>
				<path d="M60.978,80.712l-0.406,0.406v1.289h-1.129v-6h1.129v3.324l0.219-0.281l1.082-1.27h1.355l-1.527,1.762l1.66,2.465h-1.297
					L60.978,80.712z"/>
				<path d="M66.005,81.239c0-0.138-0.068-0.247-0.205-0.326s-0.356-0.15-0.658-0.213c-1.005-0.211-1.508-0.638-1.508-1.281
					c0-0.375,0.156-0.688,0.467-0.939s0.718-0.377,1.221-0.377c0.537,0,0.965,0.126,1.287,0.379s0.482,0.581,0.482,0.984h-1.129
					c0-0.162-0.052-0.295-0.156-0.4s-0.267-0.158-0.488-0.158c-0.19,0-0.337,0.043-0.441,0.129s-0.156,0.195-0.156,0.328
					c0,0.125,0.059,0.226,0.178,0.303s0.318,0.143,0.6,0.199s0.518,0.119,0.711,0.189c0.596,0.219,0.895,0.598,0.895,1.137
					c0,0.385-0.166,0.697-0.496,0.936s-0.758,0.357-1.281,0.357c-0.354,0-0.668-0.063-0.943-0.189s-0.49-0.299-0.646-0.52
					s-0.234-0.458-0.234-0.713h1.07c0.01,0.201,0.084,0.354,0.223,0.461s0.323,0.16,0.555,0.16c0.216,0,0.379-0.041,0.49-0.123
					S66.005,81.372,66.005,81.239z"/>
			</g>
		</g>
		<g>
			<path class="st5" d="M162.144,54.309c-8.011-10.835-20.875-17.864-35.385-17.864s-27.374,7.029-35.385,17.864
				c5.4,7.304,8.597,16.337,8.597,26.118s-3.197,18.814-8.597,26.118c8.011,10.835,20.875,17.864,35.385,17.864
				s27.374-7.029,35.385-17.864c-5.4-7.304-8.597-16.337-8.597-26.118C153.547,70.645,156.744,61.613,162.144,54.309z"/>
			<g>
				<path d="M115.271,81.239c0-0.138-0.068-0.247-0.205-0.326s-0.356-0.15-0.658-0.213c-1.005-0.211-1.508-0.638-1.508-1.281
					c0-0.375,0.156-0.688,0.467-0.939s0.718-0.377,1.221-0.377c0.537,0,0.965,0.126,1.287,0.379s0.482,0.581,0.482,0.984h-1.129
					c0-0.162-0.052-0.295-0.156-0.4s-0.267-0.158-0.488-0.158c-0.19,0-0.337,0.043-0.441,0.129s-0.156,0.195-0.156,0.328
					c0,0.125,0.059,0.226,0.178,0.303s0.318,0.143,0.6,0.199s0.518,0.119,0.711,0.189c0.596,0.219,0.895,0.598,0.895,1.137
					c0,0.385-0.166,0.697-0.496,0.936s-0.758,0.357-1.281,0.357c-0.354,0-0.668-0.063-0.943-0.189s-0.49-0.299-0.646-0.52
					s-0.234-0.458-0.234-0.713h1.07c0.01,0.201,0.084,0.354,0.223,0.461s0.323,0.16,0.555,0.16c0.216,0,0.379-0.041,0.49-0.123
					S115.271,81.372,115.271,81.239z"/>
				<path d="M117.169,82.407V76.72h1.992c0.69,0,1.213,0.132,1.57,0.396s0.535,0.652,0.535,1.162c0,0.279-0.072,0.524-0.215,0.736
					s-0.342,0.368-0.598,0.467c0.292,0.073,0.521,0.22,0.689,0.441s0.252,0.492,0.252,0.812c0,0.547-0.174,0.961-0.523,1.242
					s-0.846,0.424-1.492,0.43L117.169,82.407L117.169,82.407z M118.341,79.102h0.867c0.591-0.01,0.887-0.246,0.887-0.707
					c0-0.258-0.075-0.443-0.225-0.557s-0.386-0.17-0.709-0.17h-0.82L118.341,79.102L118.341,79.102z M118.341,79.931v1.535h1.004
					c0.276,0,0.492-0.066,0.646-0.197s0.232-0.313,0.232-0.545c0-0.521-0.27-0.785-0.809-0.793
					C119.414,79.931,118.341,79.931,118.341,79.931z"/>
				<path d="M123.392,82.407h-1.133v-6h1.133V82.407z"/>
				<path d="M124.146,80.255c0-0.419,0.081-0.793,0.242-1.121s0.394-0.582,0.697-0.762s0.656-0.27,1.057-0.27
					c0.57,0,1.036,0.174,1.396,0.523s0.562,0.823,0.604,1.422l0.008,0.289c0,0.648-0.181,1.168-0.543,1.561
					s-0.848,0.588-1.457,0.588s-1.096-0.195-1.459-0.586s-0.545-0.922-0.545-1.594L124.146,80.255L124.146,80.255z M125.275,80.335
					c0,0.402,0.076,0.709,0.227,0.921s0.367,0.319,0.648,0.319c0.273,0,0.487-0.105,0.641-0.315s0.23-0.546,0.23-1.007
					c0-0.394-0.077-0.699-0.23-0.916s-0.37-0.325-0.648-0.325c-0.276,0-0.49,0.107-0.641,0.323S125.275,79.884,125.275,80.335z"/>
				<path d="M130.603,81.575c0.208,0,0.377-0.057,0.508-0.172s0.198-0.267,0.203-0.457h1.059c-0.002,0.287-0.081,0.549-0.234,0.787
					s-0.364,0.423-0.631,0.555s-0.562,0.197-0.885,0.197c-0.604,0-1.081-0.192-1.43-0.576s-0.523-0.915-0.523-1.592v-0.074
					c0-0.651,0.173-1.17,0.52-1.559s0.822-0.582,1.426-0.582c0.529,0,0.953,0.15,1.271,0.451s0.481,0.701,0.486,1.201h-1.059
					c-0.005-0.22-0.073-0.398-0.203-0.536c-0.13-0.137-0.302-0.206-0.516-0.206c-0.263,0-0.461,0.096-0.596,0.288
					s-0.201,0.502-0.201,0.933v0.117c0,0.436,0.066,0.749,0.199,0.939S130.332,81.575,130.603,81.575z"/>
				<path d="M134.552,80.712l-0.406,0.406v1.289h-1.129v-6h1.129v3.324l0.219-0.281l1.082-1.27h1.355l-1.527,1.762l1.66,2.465
					h-1.297L134.552,80.712z"/>
				<path d="M139.579,81.239c0-0.138-0.068-0.247-0.205-0.326s-0.356-0.15-0.658-0.213c-1.005-0.211-1.508-0.638-1.508-1.281
					c0-0.375,0.156-0.688,0.467-0.939s0.718-0.377,1.221-0.377c0.537,0,0.965,0.126,1.287,0.379s0.482,0.581,0.482,0.984h-1.129
					c0-0.162-0.052-0.295-0.156-0.4s-0.267-0.158-0.488-0.158c-0.19,0-0.337,0.043-0.441,0.129s-0.156,0.195-0.156,0.328
					c0,0.125,0.059,0.226,0.178,0.303s0.318,0.143,0.6,0.199s0.518,0.119,0.711,0.189c0.596,0.219,0.895,0.598,0.895,1.137
					c0,0.385-0.166,0.697-0.496,0.936s-0.758,0.357-1.281,0.357c-0.354,0-0.668-0.063-0.943-0.189s-0.49-0.299-0.646-0.52
					s-0.234-0.458-0.234-0.713h1.07c0.01,0.201,0.084,0.354,0.223,0.461s0.323,0.16,0.555,0.16c0.216,0,0.379-0.041,0.49-0.123
					S139.579,81.372,139.579,81.239z"/>
			</g>
		</g>
		<g>
			<path class="st6" d="M232.914,54.309c-8.011-10.835-20.875-17.864-35.385-17.864s-27.374,7.029-35.385,17.864
				c5.4,7.304,8.597,16.337,8.597,26.118s-3.197,18.814-8.597,26.118c8.011,10.835,20.875,17.864,35.385,17.864
				s27.374-7.029,35.385-17.864c-5.4-7.304-8.597-16.337-8.597-26.118C224.316,70.645,227.513,61.613,232.914,54.309z"/>
			<g>
				<path d="M184.74,77.087c0-0.169,0.057-0.309,0.17-0.418s0.268-0.164,0.463-0.164c0.193,0,0.346,0.055,0.461,0.164
					s0.172,0.249,0.172,0.418c0,0.172-0.058,0.312-0.174,0.422s-0.269,0.164-0.459,0.164s-0.343-0.055-0.459-0.164
					S184.74,77.259,184.74,77.087z M185.939,82.407h-1.133V78.18h1.133V82.407z"/>
				<path d="M186.943,82.407V76.72h1.992c0.69,0,1.213,0.132,1.57,0.396s0.535,0.652,0.535,1.162c0,0.279-0.072,0.524-0.215,0.736
					s-0.342,0.368-0.598,0.467c0.292,0.073,0.521,0.22,0.689,0.441s0.252,0.492,0.252,0.812c0,0.547-0.174,0.961-0.523,1.242
					s-0.846,0.424-1.492,0.43L186.943,82.407L186.943,82.407z M188.115,79.102h0.867c0.591-0.01,0.887-0.246,0.887-0.707
					c0-0.258-0.075-0.443-0.225-0.557s-0.386-0.17-0.709-0.17h-0.82L188.115,79.102L188.115,79.102z M188.115,79.931v1.535h1.004
					c0.276,0,0.492-0.066,0.646-0.197s0.232-0.313,0.232-0.545c0-0.521-0.27-0.785-0.809-0.793
					C189.188,79.931,188.115,79.931,188.115,79.931z"/>
				<path d="M193.166,82.407h-1.133v-6h1.133V82.407z"/>
				<path d="M193.92,80.255c0-0.419,0.081-0.793,0.242-1.121s0.394-0.582,0.697-0.762s0.656-0.27,1.057-0.27
					c0.57,0,1.036,0.174,1.396,0.523s0.562,0.823,0.604,1.422l0.008,0.289c0,0.648-0.181,1.168-0.543,1.561
					s-0.848,0.588-1.457,0.588s-1.096-0.195-1.459-0.586s-0.545-0.922-0.545-1.594L193.92,80.255L193.92,80.255z M195.049,80.335
					c0,0.402,0.076,0.709,0.227,0.921s0.367,0.319,0.648,0.319c0.273,0,0.487-0.105,0.641-0.315s0.23-0.546,0.23-1.007
					c0-0.394-0.077-0.699-0.23-0.916s-0.37-0.325-0.648-0.325c-0.276,0-0.49,0.107-0.641,0.323S195.049,79.884,195.049,80.335z"/>
				<path d="M200.377,81.575c0.208,0,0.377-0.057,0.507-0.172c0.131-0.115,0.198-0.267,0.203-0.457h1.059
					c-0.002,0.287-0.08,0.549-0.234,0.787c-0.153,0.238-0.363,0.423-0.631,0.555c-0.267,0.131-0.562,0.197-0.884,0.197
					c-0.604,0-1.081-0.192-1.43-0.576s-0.523-0.915-0.523-1.592v-0.074c0-0.651,0.173-1.17,0.52-1.559s0.822-0.582,1.426-0.582
					c0.529,0,0.953,0.15,1.271,0.451c0.319,0.301,0.481,0.701,0.486,1.201h-1.059c-0.005-0.22-0.072-0.398-0.203-0.536
					c-0.13-0.137-0.302-0.206-0.515-0.206c-0.263,0-0.461,0.096-0.596,0.288s-0.201,0.502-0.201,0.933v0.117
					c0,0.436,0.066,0.749,0.199,0.939S200.106,81.575,200.377,81.575z"/>
				<path d="M204.325,80.712l-0.406,0.406v1.289h-1.129v-6h1.129v3.324l0.219-0.281l1.082-1.27h1.355l-1.527,1.762l1.66,2.465
					h-1.297L204.325,80.712z"/>
				<path d="M209.353,81.239c0-0.138-0.068-0.247-0.205-0.326s-0.355-0.15-0.658-0.213c-1.005-0.211-1.508-0.638-1.508-1.281
					c0-0.375,0.156-0.688,0.467-0.939c0.312-0.251,0.719-0.377,1.221-0.377c0.537,0,0.966,0.126,1.287,0.379
					c0.322,0.252,0.482,0.581,0.482,0.984h-1.129c0-0.162-0.052-0.295-0.156-0.4s-0.267-0.158-0.488-0.158
					c-0.189,0-0.337,0.043-0.441,0.129s-0.156,0.195-0.156,0.328c0,0.125,0.06,0.226,0.178,0.303c0.119,0.077,0.318,0.143,0.6,0.199
					s0.519,0.119,0.711,0.189c0.597,0.219,0.895,0.598,0.895,1.137c0,0.385-0.165,0.697-0.496,0.936
					c-0.33,0.238-0.758,0.357-1.281,0.357c-0.354,0-0.668-0.063-0.943-0.189c-0.274-0.126-0.49-0.299-0.646-0.52
					s-0.234-0.458-0.234-0.713h1.07c0.011,0.201,0.085,0.354,0.223,0.461c0.139,0.107,0.323,0.16,0.555,0.16
					c0.217,0,0.38-0.041,0.49-0.123C209.298,81.479,209.353,81.372,209.353,81.239z"/>
			</g>
		</g>
		<g>
			<path class="st7" d="M303.684,54.309c-8.011-10.835-20.875-17.864-35.385-17.864s-27.374,7.029-35.385,17.864
				c5.4,7.304,8.597,16.337,8.597,26.118s-3.197,18.814-8.597,26.118c8.011,10.835,20.875,17.864,35.385,17.864
				s27.374-7.029,35.385-17.864c-5.4-7.304-8.597-16.337-8.597-26.118C295.086,70.645,298.283,61.613,303.684,54.309z"/>
			<g>
				<path d="M252.516,77.669h-1.742v4.738h-1.172v-4.738h-1.719V76.72h4.633V77.669z"/>
				<path d="M255.055,82.485c-0.62,0-1.125-0.19-1.514-0.57c-0.39-0.38-0.584-0.887-0.584-1.52v-0.109
					c0-0.424,0.082-0.804,0.246-1.139s0.396-0.592,0.697-0.773s0.644-0.271,1.029-0.271c0.578,0,1.033,0.182,1.365,0.547
					s0.498,0.881,0.498,1.551v0.461h-2.691c0.036,0.276,0.146,0.498,0.33,0.664s0.416,0.25,0.697,0.25
					c0.435,0,0.774-0.158,1.02-0.473l0.555,0.621c-0.17,0.24-0.398,0.426-0.688,0.561S255.406,82.485,255.055,82.485z
					 M254.926,79.013c-0.225,0-0.406,0.076-0.545,0.228c-0.14,0.152-0.229,0.369-0.268,0.651h1.57v-0.09
					c-0.006-0.251-0.073-0.445-0.203-0.583C255.35,79.081,255.165,79.013,254.926,79.013z"/>
				<path d="M257.258,80.255c0-0.664,0.147-1.189,0.443-1.574c0.295-0.385,0.701-0.578,1.217-0.578c0.453,0,0.813,0.173,1.082,0.52
					l0.074-0.441h0.992v5.852h-1.133v-1.988c-0.261,0.294-0.602,0.441-1.023,0.441c-0.503,0-0.904-0.195-1.203-0.586
					C257.407,81.509,257.258,80.96,257.258,80.255z M258.387,80.335c0,0.404,0.07,0.712,0.213,0.923
					c0.142,0.211,0.342,0.317,0.6,0.317c0.346,0,0.591-0.138,0.734-0.415v-1.749c-0.141-0.266-0.383-0.399-0.727-0.399
					c-0.261,0-0.463,0.105-0.605,0.317C258.458,79.541,258.387,79.876,258.387,80.335z"/>
				<path d="M264.149,80.427h-2.199v-0.91h2.199V80.427z"/>
				<path d="M266.406,77.142v1.039h0.723v0.828h-0.723v2.109c0,0.156,0.029,0.268,0.09,0.336c0.06,0.068,0.174,0.102,0.344,0.102
					c0.125,0,0.235-0.009,0.332-0.027v0.855c-0.222,0.068-0.449,0.102-0.684,0.102c-0.792,0-1.195-0.4-1.211-1.199V79.01h-0.617
					v-0.828h0.617v-1.039L266.406,77.142L266.406,77.142z"/>
				<path d="M267.75,77.087c0-0.169,0.057-0.309,0.17-0.418s0.268-0.164,0.463-0.164c0.192,0,0.346,0.055,0.461,0.164
					c0.114,0.109,0.172,0.249,0.172,0.418c0,0.172-0.059,0.312-0.174,0.422c-0.116,0.109-0.27,0.164-0.459,0.164
					c-0.19,0-0.344-0.055-0.459-0.164C267.808,77.399,267.75,77.259,267.75,77.087z M268.949,82.407h-1.133V78.18h1.133V82.407z"/>
				<path d="M271.461,81.028l0.785-2.848h1.18L272,82.407h-1.078l-1.426-4.227h1.18L271.461,81.028z"/>
				<path d="M273.914,77.087c0-0.169,0.057-0.309,0.17-0.418s0.268-0.164,0.463-0.164c0.192,0,0.346,0.055,0.461,0.164
					c0.114,0.109,0.172,0.249,0.172,0.418c0,0.172-0.059,0.312-0.174,0.422c-0.116,0.109-0.27,0.164-0.459,0.164
					c-0.19,0-0.344-0.055-0.459-0.164C273.972,77.399,273.914,77.259,273.914,77.087z M275.113,82.407h-1.133V78.18h1.133V82.407z"
					/>
				<path d="M277.395,77.142v1.039h0.723v0.828h-0.723v2.109c0,0.156,0.029,0.268,0.09,0.336c0.06,0.068,0.174,0.102,0.344,0.102
					c0.125,0,0.235-0.009,0.332-0.027v0.855c-0.222,0.068-0.449,0.102-0.684,0.102c-0.792,0-1.195-0.4-1.211-1.199V79.01h-0.617
					v-0.828h0.617v-1.039L277.395,77.142L277.395,77.142z"/>
				<path d="M278.738,77.087c0-0.169,0.057-0.309,0.17-0.418s0.268-0.164,0.463-0.164c0.192,0,0.346,0.055,0.461,0.164
					c0.114,0.109,0.172,0.249,0.172,0.418c0,0.172-0.059,0.312-0.174,0.422c-0.116,0.109-0.27,0.164-0.459,0.164
					c-0.19,0-0.344-0.055-0.459-0.164C278.796,77.399,278.738,77.259,278.738,77.087z M279.938,82.407h-1.133V78.18h1.133V82.407z"
					/>
				<path d="M282.813,82.485c-0.62,0-1.125-0.19-1.514-0.57c-0.39-0.38-0.584-0.887-0.584-1.52v-0.109
					c0-0.424,0.082-0.804,0.246-1.139s0.396-0.592,0.697-0.773s0.644-0.271,1.029-0.271c0.578,0,1.033,0.182,1.365,0.547
					s0.498,0.881,0.498,1.551v0.461h-2.691c0.036,0.276,0.146,0.498,0.33,0.664s0.416,0.25,0.697,0.25
					c0.435,0,0.774-0.158,1.02-0.473l0.555,0.621c-0.17,0.24-0.398,0.426-0.688,0.561S283.164,82.485,282.813,82.485z
					 M282.684,79.013c-0.225,0-0.406,0.076-0.545,0.228c-0.14,0.152-0.229,0.369-0.268,0.651h1.57v-0.09
					c-0.006-0.251-0.073-0.445-0.203-0.583C283.108,79.081,282.923,79.013,282.684,79.013z"/>
				<path d="M287.481,81.239c0-0.138-0.068-0.247-0.205-0.326s-0.356-0.15-0.658-0.213c-1.006-0.211-1.508-0.638-1.508-1.281
					c0-0.375,0.155-0.688,0.467-0.939c0.311-0.251,0.718-0.377,1.221-0.377c0.536,0,0.965,0.126,1.287,0.379
					c0.321,0.252,0.482,0.581,0.482,0.984h-1.129c0-0.162-0.053-0.295-0.156-0.4c-0.104-0.105-0.268-0.158-0.488-0.158
					c-0.19,0-0.338,0.043-0.441,0.129c-0.104,0.086-0.156,0.195-0.156,0.328c0,0.125,0.059,0.226,0.178,0.303
					c0.118,0.077,0.318,0.143,0.6,0.199s0.518,0.119,0.711,0.189c0.596,0.219,0.895,0.598,0.895,1.137
					c0,0.385-0.166,0.697-0.496,0.936c-0.331,0.238-0.758,0.357-1.281,0.357c-0.354,0-0.669-0.063-0.943-0.189
					c-0.275-0.126-0.49-0.299-0.646-0.52s-0.234-0.458-0.234-0.713h1.07c0.01,0.201,0.084,0.354,0.223,0.461
					c0.138,0.107,0.322,0.16,0.555,0.16c0.216,0,0.379-0.041,0.49-0.123C287.425,81.479,287.481,81.372,287.481,81.239z"/>
			</g>
		</g>
		<g>
			<path class="st8" d="M339.068,36.444c-14.509,0-27.374,7.029-35.385,17.864c5.4,7.304,8.597,16.337,8.597,26.118
				s-3.197,18.814-8.597,26.118c8.011,10.835,20.875,17.864,35.385,17.864c24.291,0,43.982-19.692,43.982-43.982
				C383.051,56.136,363.359,36.444,339.068,36.444z"/>
			<g>
				<path d="M320.211,80.915c0-0.221-0.078-0.391-0.234-0.51s-0.438-0.244-0.844-0.375s-0.729-0.261-0.965-0.389
					c-0.646-0.349-0.969-0.819-0.969-1.41c0-0.307,0.086-0.582,0.26-0.822c0.173-0.241,0.422-0.429,0.746-0.564
					s0.688-0.203,1.092-0.203c0.406,0,0.768,0.074,1.086,0.221c0.317,0.147,0.564,0.355,0.74,0.623s0.264,0.573,0.264,0.914h-1.172
					c0-0.26-0.082-0.463-0.246-0.607s-0.395-0.217-0.691-0.217c-0.287,0-0.51,0.061-0.668,0.182
					c-0.159,0.121-0.238,0.281-0.238,0.479c0,0.185,0.093,0.34,0.279,0.465s0.46,0.242,0.822,0.352
					c0.666,0.201,1.152,0.449,1.457,0.746s0.457,0.667,0.457,1.109c0,0.492-0.187,0.878-0.559,1.158
					c-0.373,0.28-0.874,0.42-1.504,0.42c-0.438,0-0.836-0.08-1.195-0.24s-0.634-0.379-0.822-0.658
					c-0.189-0.279-0.283-0.602-0.283-0.969h1.176c0,0.627,0.375,0.941,1.125,0.941c0.278,0,0.496-0.057,0.652-0.17
					S320.211,81.118,320.211,80.915z"/>
				<path d="M326.461,77.669h-1.742v4.738h-1.172v-4.738h-1.719V76.72h4.633V77.669z"/>
				<path d="M330.551,79.942h-2.25v1.523h2.641v0.941h-3.812V76.72h3.805v0.949h-2.633v1.355h2.25L330.551,79.942L330.551,79.942z"
					/>
				<path d="M333.16,76.72l1.461,4.125l1.453-4.125h1.539v5.688h-1.176v-1.555l0.117-2.684l-1.535,4.238h-0.805l-1.531-4.234
					l0.117,2.68v1.555h-1.172V76.72H333.16z"/>
				<path d="M343.84,81.235h-2.055l-0.391,1.172h-1.246l2.117-5.688h1.086l2.129,5.688h-1.246L343.84,81.235z M342.102,80.286h1.422
					l-0.715-2.129L342.102,80.286z"/>
				<path d="M347.696,81.575c0.208,0,0.377-0.057,0.508-0.172c0.13-0.115,0.197-0.267,0.203-0.457h1.059
					c-0.003,0.287-0.081,0.549-0.234,0.787c-0.154,0.238-0.364,0.423-0.631,0.555c-0.268,0.131-0.562,0.197-0.885,0.197
					c-0.604,0-1.081-0.192-1.43-0.576c-0.35-0.384-0.523-0.915-0.523-1.592v-0.074c0-0.651,0.173-1.17,0.52-1.559
					c0.346-0.388,0.821-0.582,1.426-0.582c0.528,0,0.952,0.15,1.271,0.451c0.318,0.301,0.48,0.701,0.486,1.201h-1.059
					c-0.006-0.22-0.073-0.398-0.203-0.536c-0.131-0.137-0.303-0.206-0.516-0.206c-0.264,0-0.462,0.096-0.596,0.288
					c-0.135,0.192-0.201,0.502-0.201,0.933v0.117c0,0.436,0.066,0.749,0.199,0.939S347.424,81.575,347.696,81.575z"/>
				<path d="M351.461,77.142v1.039h0.723v0.828h-0.723v2.109c0,0.156,0.029,0.268,0.09,0.336c0.06,0.068,0.174,0.102,0.344,0.102
					c0.125,0,0.235-0.009,0.332-0.027v0.855c-0.222,0.068-0.449,0.102-0.684,0.102c-0.792,0-1.195-0.4-1.211-1.199V79.01h-0.617
					v-0.828h0.617v-1.039L351.461,77.142L351.461,77.142z"/>
				<path d="M352.805,77.087c0-0.169,0.057-0.309,0.17-0.418s0.268-0.164,0.463-0.164c0.192,0,0.346,0.055,0.461,0.164
					c0.114,0.109,0.172,0.249,0.172,0.418c0,0.172-0.059,0.312-0.174,0.422c-0.116,0.109-0.27,0.164-0.459,0.164
					c-0.19,0-0.344-0.055-0.459-0.164C352.863,77.399,352.805,77.259,352.805,77.087z M354.004,82.407h-1.133V78.18h1.133V82.407z"
					/>
				<path d="M356.516,81.028l0.785-2.848h1.18l-1.426,4.227h-1.078l-1.426-4.227h1.18L356.516,81.028z"/>
				<path d="M358.969,77.087c0-0.169,0.057-0.309,0.17-0.418s0.268-0.164,0.463-0.164c0.192,0,0.346,0.055,0.461,0.164
					c0.114,0.109,0.172,0.249,0.172,0.418c0,0.172-0.059,0.312-0.174,0.422c-0.116,0.109-0.27,0.164-0.459,0.164
					c-0.19,0-0.344-0.055-0.459-0.164C359.027,77.399,358.969,77.259,358.969,77.087z M360.168,82.407h-1.133V78.18h1.133V82.407z"
					/>
				<path d="M362.449,77.142v1.039h0.723v0.828h-0.723v2.109c0,0.156,0.029,0.268,0.09,0.336c0.06,0.068,0.174,0.102,0.344,0.102
					c0.125,0,0.235-0.009,0.332-0.027v0.855c-0.222,0.068-0.449,0.102-0.684,0.102c-0.792,0-1.195-0.4-1.211-1.199V79.01h-0.617
					v-0.828h0.617v-1.039L362.449,77.142L362.449,77.142z"/>
				<path d="M365.379,80.81l0.781-2.629h1.211l-1.699,4.883l-0.094,0.223c-0.253,0.552-0.67,0.828-1.25,0.828
					c-0.164,0-0.331-0.025-0.5-0.074v-0.855L364,83.188c0.213,0,0.373-0.033,0.479-0.098s0.188-0.173,0.248-0.324l0.133-0.348
					l-1.48-4.238h1.215L365.379,80.81z"/>
				<path d="M332.766,90.003v2.004h-1.172V86.32h2.219c0.427,0,0.803,0.078,1.127,0.234s0.573,0.378,0.748,0.666
					c0.174,0.288,0.262,0.615,0.262,0.982c0,0.557-0.191,0.997-0.572,1.318c-0.382,0.322-0.91,0.482-1.584,0.482L332.766,90.003
					L332.766,90.003z M332.766,89.054h1.047c0.31,0,0.546-0.073,0.709-0.219c0.162-0.146,0.244-0.354,0.244-0.625
					c0-0.279-0.082-0.504-0.246-0.676s-0.391-0.26-0.68-0.266h-1.074V89.054z"/>
				<path d="M339.086,92.007c-0.053-0.102-0.09-0.228-0.113-0.379c-0.273,0.305-0.629,0.457-1.066,0.457
					c-0.414,0-0.758-0.12-1.029-0.359c-0.272-0.24-0.408-0.542-0.408-0.906c0-0.448,0.166-0.792,0.498-1.031
					s0.812-0.361,1.439-0.363h0.52v-0.242c0-0.195-0.051-0.352-0.15-0.469c-0.101-0.117-0.259-0.176-0.475-0.176
					c-0.19,0-0.34,0.045-0.447,0.137c-0.108,0.091-0.162,0.216-0.162,0.375h-1.129c0-0.245,0.075-0.471,0.227-0.68
					c0.15-0.208,0.364-0.372,0.641-0.49c0.275-0.119,0.586-0.178,0.93-0.178c0.521,0,0.934,0.131,1.24,0.393
					s0.459,0.629,0.459,1.104v1.832c0.002,0.401,0.059,0.705,0.168,0.91v0.066h-1.143L339.086,92.007L339.086,92.007z
					 M338.153,91.222c0.166,0,0.32-0.037,0.461-0.111s0.244-0.174,0.312-0.299v-0.727h-0.422c-0.565,0-0.866,0.195-0.902,0.586
					l-0.004,0.066c0,0.141,0.049,0.256,0.148,0.348C337.845,91.177,337.981,91.222,338.153,91.222z"/>
				<path d="M342.684,91.175c0.208,0,0.377-0.057,0.508-0.172c0.13-0.115,0.197-0.267,0.203-0.457h1.059
					c-0.003,0.287-0.081,0.549-0.234,0.787c-0.154,0.238-0.364,0.423-0.631,0.555c-0.268,0.131-0.562,0.197-0.885,0.197
					c-0.604,0-1.081-0.192-1.43-0.576c-0.35-0.384-0.523-0.915-0.523-1.592v-0.074c0-0.651,0.173-1.17,0.52-1.559
					c0.346-0.388,0.821-0.582,1.426-0.582c0.528,0,0.952,0.15,1.271,0.451c0.318,0.301,0.48,0.701,0.486,1.201h-1.059
					c-0.006-0.22-0.073-0.398-0.203-0.536c-0.131-0.137-0.303-0.206-0.516-0.206c-0.264,0-0.462,0.096-0.596,0.288
					c-0.135,0.192-0.201,0.502-0.201,0.933v0.117c0,0.436,0.066,0.749,0.199,0.939S342.412,91.175,342.684,91.175z"/>
				<path d="M346.633,90.312l-0.406,0.406v1.289h-1.129v-6h1.129v3.324l0.219-0.281l1.082-1.27h1.355l-1.527,1.762l1.66,2.465
					h-1.297L346.633,90.312z"/>
				<path d="M351.66,90.839c0-0.138-0.068-0.247-0.205-0.326s-0.356-0.15-0.658-0.213c-1.006-0.211-1.508-0.638-1.508-1.281
					c0-0.375,0.155-0.688,0.467-0.939c0.311-0.251,0.718-0.377,1.221-0.377c0.536,0,0.965,0.126,1.287,0.379
					c0.321,0.252,0.482,0.581,0.482,0.984h-1.129c0-0.162-0.053-0.295-0.156-0.4c-0.104-0.105-0.268-0.158-0.488-0.158
					c-0.19,0-0.338,0.043-0.441,0.129c-0.104,0.086-0.156,0.195-0.156,0.328c0,0.125,0.059,0.226,0.178,0.303
					c0.118,0.077,0.318,0.143,0.6,0.199s0.518,0.119,0.711,0.189c0.596,0.219,0.895,0.598,0.895,1.137
					c0,0.385-0.166,0.697-0.496,0.936c-0.331,0.238-0.758,0.357-1.281,0.357c-0.354,0-0.669-0.063-0.943-0.189
					c-0.275-0.126-0.49-0.299-0.646-0.52s-0.234-0.458-0.234-0.713h1.07c0.01,0.201,0.084,0.354,0.223,0.461
					c0.138,0.107,0.322,0.16,0.555,0.16c0.216,0,0.379-0.041,0.49-0.123C351.605,91.08,351.66,90.972,351.66,90.839z"/>
			</g>
		</g>
	</g>
	<g>
		<g>
			<path d="M182.34,13.308h-1.742v4.738h-1.172v-4.738h-1.719v-0.949h4.633V13.308z"/>
			<path d="M184.879,18.124c-0.62,0-1.125-0.19-1.514-0.57s-0.584-0.887-0.584-1.52v-0.109c0-0.424,0.082-0.804,0.246-1.139
				s0.396-0.592,0.697-0.773s0.644-0.271,1.029-0.271c0.578,0,1.033,0.182,1.365,0.547s0.498,0.881,0.498,1.551v0.46h-2.691
				c0.037,0.276,0.146,0.498,0.33,0.664s0.416,0.25,0.697,0.25c0.435,0,0.775-0.158,1.02-0.473l0.555,0.621
				c-0.169,0.24-0.398,0.426-0.688,0.561S185.23,18.124,184.879,18.124z M184.75,14.651c-0.224,0-0.406,0.076-0.545,0.228
				s-0.229,0.369-0.268,0.651h1.57v-0.09c-0.005-0.251-0.073-0.445-0.203-0.583S184.99,14.651,184.75,14.651z"/>
			<path d="M187.082,15.894c0-0.664,0.148-1.189,0.443-1.574s0.701-0.578,1.217-0.578c0.453,0,0.814,0.173,1.082,0.52l0.074-0.441
				h0.992v5.852h-1.133v-1.988c-0.26,0.294-0.602,0.441-1.023,0.441c-0.502,0-0.904-0.195-1.203-0.586
				S187.082,16.599,187.082,15.894z M188.211,15.974c0,0.404,0.071,0.712,0.213,0.923s0.342,0.317,0.6,0.317
				c0.346,0,0.591-0.138,0.734-0.415V15.05c-0.141-0.266-0.383-0.399-0.727-0.399c-0.26,0-0.462,0.105-0.605,0.317
				S188.211,15.515,188.211,15.974z"/>
			<path d="M193.844,18.046v-5.688h1.992c0.69,0,1.213,0.132,1.57,0.396s0.535,0.652,0.535,1.162c0,0.279-0.072,0.524-0.215,0.736
				s-0.342,0.368-0.598,0.467c0.292,0.073,0.521,0.22,0.689,0.441s0.252,0.492,0.252,0.812c0,0.547-0.174,0.961-0.523,1.242
				s-0.846,0.424-1.492,0.43h-2.21L193.844,18.046L193.844,18.046z M195.016,14.741h0.867c0.591-0.01,0.887-0.246,0.887-0.707
				c0-0.258-0.075-0.443-0.225-0.557s-0.386-0.17-0.709-0.17h-0.82L195.016,14.741L195.016,14.741z M195.016,15.569v1.535h1.004
				c0.276,0,0.492-0.066,0.646-0.197s0.232-0.313,0.232-0.545c0-0.521-0.27-0.785-0.809-0.793
				C196.089,15.569,195.016,15.569,195.016,15.569z"/>
			<path d="M200.066,18.046h-1.133v-6h1.133V18.046z"/>
			<path d="M200.82,15.894c0-0.419,0.081-0.793,0.242-1.121s0.394-0.582,0.697-0.762s0.656-0.27,1.056-0.27
				c0.57,0,1.036,0.174,1.396,0.523c0.361,0.349,0.562,0.823,0.604,1.422l0.008,0.289c0,0.648-0.181,1.168-0.543,1.561
				c-0.361,0.392-0.848,0.588-1.457,0.588s-1.095-0.195-1.458-0.586s-0.545-0.922-0.545-1.594L200.82,15.894L200.82,15.894z
				 M201.949,15.974c0,0.402,0.076,0.709,0.226,0.921c0.151,0.212,0.367,0.319,0.648,0.319c0.273,0,0.487-0.105,0.641-0.315
				c0.154-0.21,0.23-0.546,0.23-1.007c0-0.394-0.076-0.699-0.23-0.916c-0.153-0.216-0.369-0.325-0.648-0.325
				c-0.275,0-0.489,0.107-0.641,0.323C202.025,15.189,201.949,15.522,201.949,15.974z"/>
			<path d="M207.277,17.214c0.209,0,0.378-0.057,0.508-0.172c0.131-0.115,0.198-0.267,0.203-0.457h1.059
				c-0.002,0.287-0.08,0.549-0.234,0.787c-0.153,0.238-0.363,0.423-0.631,0.555c-0.267,0.131-0.562,0.197-0.885,0.197
				c-0.604,0-1.08-0.192-1.43-0.576c-0.349-0.384-0.523-0.915-0.523-1.592v-0.074c0-0.651,0.174-1.17,0.52-1.559
				c0.347-0.388,0.822-0.582,1.426-0.582c0.529,0,0.953,0.15,1.271,0.451c0.319,0.301,0.481,0.701,0.486,1.201h-1.059
				c-0.005-0.22-0.072-0.398-0.203-0.536c-0.13-0.137-0.302-0.206-0.516-0.206c-0.263,0-0.461,0.096-0.596,0.288
				c-0.134,0.192-0.201,0.502-0.201,0.933v0.117c0,0.436,0.066,0.749,0.199,0.939S207.006,17.214,207.277,17.214z"/>
			<path d="M211.226,16.351l-0.406,0.406v1.289h-1.129v-6h1.129v3.324l0.219-0.281l1.082-1.27h1.355l-1.527,1.762l1.66,2.465h-1.297
				L211.226,16.351z"/>
			<path d="M216.253,16.878c0-0.138-0.068-0.247-0.205-0.326s-0.355-0.15-0.658-0.213c-1.005-0.211-1.508-0.638-1.508-1.281
				c0-0.375,0.156-0.688,0.467-0.939c0.312-0.251,0.719-0.377,1.221-0.377c0.537,0,0.966,0.126,1.287,0.379
				c0.322,0.252,0.482,0.581,0.482,0.984h-1.129c0-0.162-0.052-0.295-0.156-0.4s-0.267-0.158-0.488-0.158
				c-0.189,0-0.337,0.043-0.441,0.129c-0.104,0.086-0.156,0.195-0.156,0.328c0,0.125,0.06,0.226,0.178,0.303
				c0.119,0.077,0.318,0.143,0.6,0.199s0.519,0.119,0.711,0.189c0.597,0.219,0.895,0.598,0.895,1.137
				c0,0.385-0.165,0.697-0.496,0.936c-0.33,0.238-0.758,0.357-1.281,0.357c-0.354,0-0.668-0.063-0.943-0.189
				c-0.274-0.126-0.49-0.299-0.646-0.52s-0.234-0.458-0.234-0.713h1.07c0.011,0.201,0.085,0.354,0.223,0.461
				c0.139,0.107,0.323,0.16,0.555,0.16c0.217,0,0.38-0.041,0.49-0.123C216.199,17.118,216.253,17.011,216.253,16.878z"/>
		</g>
		<polyline class="st9" points="7.121,33.333 7.121,16.046 165.146,16.046 		"/>
		<polyline class="st9" points="387.937,33.333 387.937,16.046 229.912,16.046 		"/>
	</g>
</g>
</svg>
