<?xml version="1.0" encoding="utf-8"?>
<!-- Generator: Adobe Illustrator 24.1.2, SVG Export Plug-In . SVG Version: 6.00 Build 0)  -->
<svg version="1.1" id="Layer_1" xmlns="http://www.w3.org/2000/svg" xmlns:xlink="http://www.w3.org/1999/xlink" x="0px" y="0px"
	 viewBox="0 0 134.071 134.071" style="enable-background:new 0 0 134.071 134.071;" xml:space="preserve">
<style type="text/css">
	.st0{fill:#FFFFFF;}
</style>
<path class="st0" d="M67.036,5.36C33.382,5.36,6.1,32.642,6.1,66.296c0,33.654,27.282,60.936,60.936,60.936
	s60.936-27.282,60.936-60.936S100.69,5.36,67.036,5.36z M92.855,53.052c0.842,18.738-13.132,39.629-37.866,39.629
	c-7.523,0-14.525-2.206-20.421-5.986c7.068,0.835,14.123-1.125,19.723-5.516c-5.831-0.108-10.751-3.958-12.443-9.252
	c2.085,0.399,4.138,0.283,6.014-0.227c-6.407-1.288-10.829-7.06-10.687-13.232c1.795,0.997,3.852,1.598,6.037,1.667
	c-5.933-3.964-7.613-11.798-4.123-17.788c6.569,8.062,16.386,13.366,27.458,13.921c-1.941-8.333,4.378-16.357,12.976-16.357
	c3.833,0,7.295,1.617,9.726,4.206c3.032-0.597,5.884-1.707,8.458-3.234c-0.994,3.114-3.107,5.725-5.856,7.37
	c2.693-0.321,5.261-1.038,7.651-2.097C97.716,48.83,95.457,51.175,92.855,53.052z"/>
</svg>
